<mxfile host="app.diagrams.net" modified="2023-11-15T05:52:56.903Z" agent="Mozilla/5.0 (Windows NT 10.0; Win64; x64) AppleWebKit/537.36 (KHTML, like Gecko) Chrome/116.0.0.0 Safari/537.36 Edg/116.0.1938.76" etag="dYbpigUrChcZxxXCzuUh" version="22.1.1" type="github">
  <diagram name="Page-1" id="-DX-BuYwbXiJZP43AESr">
    <mxGraphModel dx="1447" dy="584" grid="1" gridSize="10" guides="1" tooltips="1" connect="1" arrows="1" fold="1" page="1" pageScale="1" pageWidth="850" pageHeight="1100" math="0" shadow="0">
      <root>
        <mxCell id="0" />
        <mxCell id="1" parent="0" />
        <mxCell id="pXWiy-woDnGJ4gV50viA-1" value="Patient" style="shape=umlActor;verticalLabelPosition=bottom;verticalAlign=top;html=1;outlineConnect=0;" vertex="1" parent="1">
          <mxGeometry x="39" y="140" width="30" height="60" as="geometry" />
        </mxCell>
        <mxCell id="pXWiy-woDnGJ4gV50viA-2" value="&lt;b&gt;Angular Frontend (Appointment Scheduling app)&lt;/b&gt;" style="whiteSpace=wrap;html=1;aspect=fixed;" vertex="1" parent="1">
          <mxGeometry x="129" y="120" width="130" height="130" as="geometry" />
        </mxCell>
        <mxCell id="pXWiy-woDnGJ4gV50viA-3" value="" style="endArrow=classic;html=1;rounded=0;exitX=0.5;exitY=0.5;exitDx=0;exitDy=0;exitPerimeter=0;entryX=0.006;entryY=0.383;entryDx=0;entryDy=0;entryPerimeter=0;" edge="1" parent="1" source="pXWiy-woDnGJ4gV50viA-1" target="pXWiy-woDnGJ4gV50viA-2">
          <mxGeometry width="50" height="50" relative="1" as="geometry">
            <mxPoint x="289" y="230" as="sourcePoint" />
            <mxPoint x="339" y="180" as="targetPoint" />
          </mxGeometry>
        </mxCell>
        <mxCell id="pXWiy-woDnGJ4gV50viA-4" value="" style="endArrow=classic;html=1;rounded=0;exitX=1;exitY=0.5;exitDx=0;exitDy=0;" edge="1" parent="1" source="pXWiy-woDnGJ4gV50viA-2">
          <mxGeometry width="50" height="50" relative="1" as="geometry">
            <mxPoint x="289" y="230" as="sourcePoint" />
            <mxPoint x="369" y="120" as="targetPoint" />
          </mxGeometry>
        </mxCell>
        <mxCell id="pXWiy-woDnGJ4gV50viA-5" value="&lt;b&gt;Display available doctors on page load&lt;/b&gt;" style="ellipse;whiteSpace=wrap;html=1;aspect=fixed;" vertex="1" parent="1">
          <mxGeometry x="369" y="60" width="110" height="110" as="geometry" />
        </mxCell>
        <mxCell id="pXWiy-woDnGJ4gV50viA-6" value="" style="endArrow=classic;html=1;rounded=0;exitX=1;exitY=0.5;exitDx=0;exitDy=0;" edge="1" parent="1" source="pXWiy-woDnGJ4gV50viA-2">
          <mxGeometry width="50" height="50" relative="1" as="geometry">
            <mxPoint x="289" y="230" as="sourcePoint" />
            <mxPoint x="369" y="260" as="targetPoint" />
          </mxGeometry>
        </mxCell>
        <mxCell id="pXWiy-woDnGJ4gV50viA-7" value="&lt;b&gt;Book appointment with Doctor name and appointment time&lt;/b&gt;" style="ellipse;whiteSpace=wrap;html=1;aspect=fixed;" vertex="1" parent="1">
          <mxGeometry x="369" y="200" width="130" height="130" as="geometry" />
        </mxCell>
        <mxCell id="pXWiy-woDnGJ4gV50viA-8" value="" style="endArrow=classic;html=1;rounded=0;exitX=1;exitY=0.5;exitDx=0;exitDy=0;" edge="1" parent="1" source="pXWiy-woDnGJ4gV50viA-7">
          <mxGeometry width="50" height="50" relative="1" as="geometry">
            <mxPoint x="509" y="310" as="sourcePoint" />
            <mxPoint x="559" y="265" as="targetPoint" />
          </mxGeometry>
        </mxCell>
        <mxCell id="pXWiy-woDnGJ4gV50viA-11" value="" style="edgeStyle=orthogonalEdgeStyle;rounded=0;orthogonalLoop=1;jettySize=auto;html=1;" edge="1" parent="1" source="pXWiy-woDnGJ4gV50viA-9">
          <mxGeometry relative="1" as="geometry">
            <mxPoint x="604" y="392.5" as="targetPoint" />
          </mxGeometry>
        </mxCell>
        <mxCell id="pXWiy-woDnGJ4gV50viA-15" value="" style="edgeStyle=orthogonalEdgeStyle;rounded=0;orthogonalLoop=1;jettySize=auto;html=1;" edge="1" parent="1" source="pXWiy-woDnGJ4gV50viA-9">
          <mxGeometry relative="1" as="geometry">
            <mxPoint x="729" y="265" as="targetPoint" />
          </mxGeometry>
        </mxCell>
        <mxCell id="pXWiy-woDnGJ4gV50viA-9" value="&lt;b&gt;Doctor available?&lt;/b&gt;" style="rhombus;whiteSpace=wrap;html=1;" vertex="1" parent="1">
          <mxGeometry x="559" y="217.5" width="90" height="95" as="geometry" />
        </mxCell>
        <mxCell id="pXWiy-woDnGJ4gV50viA-22" value="" style="edgeStyle=orthogonalEdgeStyle;rounded=0;orthogonalLoop=1;jettySize=auto;html=1;" edge="1" parent="1" source="pXWiy-woDnGJ4gV50viA-12" target="pXWiy-woDnGJ4gV50viA-21">
          <mxGeometry relative="1" as="geometry" />
        </mxCell>
        <mxCell id="pXWiy-woDnGJ4gV50viA-12" value="&lt;b&gt;Display successful message (Appointment is booked)&lt;/b&gt;" style="rounded=1;whiteSpace=wrap;html=1;" vertex="1" parent="1">
          <mxGeometry x="539" y="390" width="120" height="60" as="geometry" />
        </mxCell>
        <mxCell id="pXWiy-woDnGJ4gV50viA-13" value="&lt;b&gt;YES&lt;/b&gt;" style="text;html=1;strokeColor=none;fillColor=none;align=center;verticalAlign=middle;whiteSpace=wrap;rounded=0;" vertex="1" parent="1">
          <mxGeometry x="610" y="312.5" width="60" height="30" as="geometry" />
        </mxCell>
        <mxCell id="pXWiy-woDnGJ4gV50viA-16" value="&lt;b&gt;NO&lt;/b&gt;" style="text;html=1;strokeColor=none;fillColor=none;align=center;verticalAlign=middle;whiteSpace=wrap;rounded=0;" vertex="1" parent="1">
          <mxGeometry x="649" y="230" width="60" height="30" as="geometry" />
        </mxCell>
        <mxCell id="pXWiy-woDnGJ4gV50viA-17" value="&lt;b&gt;Display error msg (requested doctor is not available at this time)&lt;/b&gt;" style="rounded=1;whiteSpace=wrap;html=1;" vertex="1" parent="1">
          <mxGeometry x="730" y="240" width="110" height="60" as="geometry" />
        </mxCell>
        <mxCell id="pXWiy-woDnGJ4gV50viA-28" style="edgeStyle=orthogonalEdgeStyle;rounded=0;orthogonalLoop=1;jettySize=auto;html=1;entryX=0.5;entryY=0;entryDx=0;entryDy=0;exitX=0.5;exitY=1;exitDx=0;exitDy=0;" edge="1" parent="1" source="pXWiy-woDnGJ4gV50viA-17" target="pXWiy-woDnGJ4gV50viA-20">
          <mxGeometry relative="1" as="geometry">
            <mxPoint x="785" y="352.5" as="sourcePoint" />
          </mxGeometry>
        </mxCell>
        <mxCell id="pXWiy-woDnGJ4gV50viA-20" value="" style="ellipse;html=1;shape=endState;fillColor=#000000;strokeColor=#ff0000;" vertex="1" parent="1">
          <mxGeometry x="770" y="525" width="30" height="30" as="geometry" />
        </mxCell>
        <mxCell id="pXWiy-woDnGJ4gV50viA-29" style="edgeStyle=orthogonalEdgeStyle;rounded=0;orthogonalLoop=1;jettySize=auto;html=1;exitX=1;exitY=0.5;exitDx=0;exitDy=0;entryX=0;entryY=0.5;entryDx=0;entryDy=0;" edge="1" parent="1" source="pXWiy-woDnGJ4gV50viA-21" target="pXWiy-woDnGJ4gV50viA-20">
          <mxGeometry relative="1" as="geometry" />
        </mxCell>
        <mxCell id="pXWiy-woDnGJ4gV50viA-21" value="Notification Message (doctor appointment details notified to patient)" style="ellipse;whiteSpace=wrap;html=1;rounded=1;fontStyle=1" vertex="1" parent="1">
          <mxGeometry x="548.5" y="490" width="101" height="100" as="geometry" />
        </mxCell>
        <mxCell id="pXWiy-woDnGJ4gV50viA-23" value="&lt;b&gt;&lt;u&gt;MICROSERVICE 1&amp;nbsp; Display doctors&lt;/u&gt;&lt;/b&gt;" style="text;html=1;strokeColor=none;fillColor=none;align=center;verticalAlign=middle;whiteSpace=wrap;rounded=0;" vertex="1" parent="1">
          <mxGeometry x="488.5" y="95" width="121.5" height="40" as="geometry" />
        </mxCell>
        <mxCell id="pXWiy-woDnGJ4gV50viA-24" value="&lt;b&gt;&lt;u&gt;MICROSERVICE 2&amp;nbsp; Appointment Scheduling&lt;/u&gt;&lt;/b&gt;" style="text;html=1;strokeColor=none;fillColor=none;align=center;verticalAlign=middle;whiteSpace=wrap;rounded=0;" vertex="1" parent="1">
          <mxGeometry x="377.5" y="342.5" width="121.5" height="40" as="geometry" />
        </mxCell>
        <mxCell id="pXWiy-woDnGJ4gV50viA-25" value="&lt;b&gt;&lt;u&gt;MICROSERVICE 3&amp;nbsp; Notification&lt;/u&gt;&lt;/b&gt;" style="text;html=1;strokeColor=none;fillColor=none;align=center;verticalAlign=middle;whiteSpace=wrap;rounded=0;" vertex="1" parent="1">
          <mxGeometry x="390" y="510" width="121.5" height="40" as="geometry" />
        </mxCell>
        <mxCell id="pXWiy-woDnGJ4gV50viA-26" value="HealthCare : Appointment Scheduling microservices App&#xa;                          FLOW Diagram" style="text;whiteSpace=wrap;fontStyle=1" vertex="1" parent="1">
          <mxGeometry x="218.5" y="10" width="351.5" height="40" as="geometry" />
        </mxCell>
      </root>
    </mxGraphModel>
  </diagram>
</mxfile>
